<?xml version="1.0" encoding="iso-8859-1"?>
<!-- Generator: Adobe Illustrator 19.0.0, SVG Export Plug-In . SVG Version: 6.00 Build 0)  -->
<svg version="1.1" id="Layer_1" xmlns="http://www.w3.org/2000/svg" xmlns:xlink="http://www.w3.org/1999/xlink" x="0px" y="0px"
	 viewBox="0 0 512 512" style="enable-background:new 0 0 512 512;" xml:space="preserve">
<path style="fill:#B3404A;" d="M256.144,512c-2.582,0-5.167-0.038-7.758-0.113c-8.346-0.248-14.91-7.213-14.664-15.559
	c0.246-8.346,7.19-14.96,15.559-14.664c62.864,1.893,121.925-21.586,166.36-66.024c42.642-42.642,66.125-99.335,66.125-159.64
	c0-60.304-23.483-116.999-66.124-159.639C372.999,53.718,316.304,30.235,256,30.235S139.003,53.718,96.361,96.36
	c-42.642,42.64-66.125,99.335-66.125,159.639c0,60.305,23.483,116.999,66.125,159.64c13.021,13.021,27.538,24.398,43.145,33.813
	c7.149,4.315,9.448,13.606,5.134,20.755c-4.313,7.149-13.603,9.447-20.753,5.134c-17.7-10.679-34.153-23.573-48.905-38.323
	C26.63,388.667,0.001,324.379,0.001,255.999S26.63,123.333,74.982,74.981C123.334,26.628,187.621,0,256,0
	s132.666,26.628,181.02,74.981c48.352,48.352,74.98,112.639,74.98,181.018s-26.628,132.668-74.98,181.02
	c-25.379,25.379-55.084,44.778-88.288,57.66C319.073,506.183,287.96,512,256.144,512z"/>
<path style="fill:#F4B2B0;" d="M426.33,85.669c-94.07-94.07-246.589-94.07-340.659,0s-94.07,246.589,0,340.659L426.33,85.669z"/>
<path style="fill:#B3404A;" d="M85.671,441.447c-4.009,0-7.855-1.593-10.69-4.428C26.63,388.667,0.001,324.379,0.001,255.999
	S26.63,123.333,74.982,74.981C123.334,26.628,187.621,0,256.002,0c68.379,0,132.666,26.628,181.018,74.98
	c2.835,2.836,4.428,6.68,4.428,10.69s-1.593,7.854-4.428,10.69L96.361,437.019C93.527,439.853,89.681,441.447,85.671,441.447z
	 M256.002,30.235c-60.305,0-117,23.483-159.641,66.125c-42.642,42.64-66.125,99.335-66.125,159.639
	c0,55.236,19.706,107.446,55.785,148.6L404.602,86.018C363.447,49.939,311.238,30.235,256.002,30.235z"/>
<g>
</g>
<g>
</g>
<g>
</g>
<g>
</g>
<g>
</g>
<g>
</g>
<g>
</g>
<g>
</g>
<g>
</g>
<g>
</g>
<g>
</g>
<g>
</g>
<g>
</g>
<g>
</g>
<g>
</g>
</svg>
