<?xml version="1.0" encoding="iso-8859-1"?>
<!-- Generator: Adobe Illustrator 19.0.0, SVG Export Plug-In . SVG Version: 6.00 Build 0)  -->
<svg version="1.1" id="Capa_1" xmlns="http://www.w3.org/2000/svg" xmlns:xlink="http://www.w3.org/1999/xlink" x="0px" y="0px"
	 viewBox="0 0 512 512" style="enable-background:new 0 0 512 512;" xml:space="preserve">
<path style="fill:#B35C4B;" d="M451,240l-28.2,31H89.2L61,240l27.299-108.6c1.501-6.601,7.5-11.4,14.401-11.4h306.6
	c6.901,0,12.9,4.799,14.401,11.4L451,240z"/>
<g>
	<path style="fill:#A24F3D;" d="M451,240l-28.2,31H256V120h153.3c6.901,0,12.9,4.799,14.401,11.4L451,240z"/>
	<path style="fill:#A24F3D;" d="M451,240v257c0,8.399-6.599,15-15,15H76c-8.401,0-15-6.601-15-15V240H451z"/>
</g>
<path style="fill:#8B432D;" d="M451,240v257c0,8.399-6.599,15-15,15H256V240H451z"/>
<path style="fill:#E5E5E5;" d="M301,346c0-24.901-20.099-45-45-45s-45,20.099-45,45v5.099c0,34.799,21.599,51.899,23.699,54.901
	L215.5,425.499c-6,5.7-6,15.3,0,21c5.7,6,15.298,6,20.999,0l19.501-19.2l19.501,19.2c5.7,6,15.298,6,20.999,0c6-5.7,6-15.3,0-21
	L277.301,406c2.1-3.001,23.699-20.4,23.699-54.901V346z M271,351.099c0,21.301-12.9,30.601-15,33.6c-2.1-2.999-15-12.299-15-33.6
	V346c0-8.401,6.599-15,15-15s15,6.599,15,15V351.099z"/>
<g>
	<path style="fill:#1DE8F1;" d="M271,15v30c0,8.399-6.599,15-15,15s-15-6.601-15-15V15c0-8.401,6.599-15,15-15S271,6.599,271,15z"/>
	<path style="fill:#1DE8F1;" d="M196,90c-8.291,0-15-6.709-15-15V45c0-8.291,6.709-15,15-15s15,6.709,15,15v30
		C211,83.291,204.291,90,196,90z"/>
</g>
<g>
	<path style="fill:#1BD9DE;" d="M316,90c-8.291,0-15-6.709-15-15V45c0-8.291,6.709-15,15-15s15,6.709,15,15v30
		C331,83.291,324.291,90,316,90z"/>
	<path style="fill:#1BD9DE;" d="M256,60V0c8.401,0,15,6.599,15,15v30C271,53.399,264.401,60,256,60z"/>
</g>
<path style="fill:#C8C6CD;" d="M301,351.099c0,34.501-21.599,51.899-23.699,54.901l19.199,19.499c6,5.7,6,15.3,0,21
	c-5.7,6-15.298,6-20.999,0L256,427.299V384.7c2.1-2.999,15-12.299,15-33.6V346c0-8.401-6.599-15-15-15v-30c24.901,0,45,20.099,45,45
	V351.099z"/>
<path style="fill:#FCBF29;" d="M331,165c0,13.2-3.6,26.1-9.901,37.5H190.901C184.6,191.1,181,178.2,181,165c0-41.4,33.6-75,75-75
	S331,123.6,331,165z"/>
<path style="fill:#FEA832;" d="M331,165c0,13.2-3.6,26.1-9.901,37.5H256V90C297.4,90,331,123.6,331,165z"/>
<path style="fill:#57555C;" d="M361,195c0,8.399-6.599,15-15,15H166c-8.401,0-15-6.601-15-15c0-8.401,6.599-15,15-15h180
	C354.401,180,361,186.599,361,195z"/>
<path style="fill:#3C3A41;" d="M346,210h-90v-30h90c8.401,0,15,6.599,15,15C361,203.399,354.401,210,346,210z"/>
<g>
</g>
<g>
</g>
<g>
</g>
<g>
</g>
<g>
</g>
<g>
</g>
<g>
</g>
<g>
</g>
<g>
</g>
<g>
</g>
<g>
</g>
<g>
</g>
<g>
</g>
<g>
</g>
<g>
</g>
</svg>
