<?xml version="1.0" encoding="iso-8859-1"?>
<!-- Generator: Adobe Illustrator 19.0.0, SVG Export Plug-In . SVG Version: 6.00 Build 0)  -->
<svg version="1.1" id="Capa_1" xmlns="http://www.w3.org/2000/svg" xmlns:xlink="http://www.w3.org/1999/xlink" x="0px" y="0px"
	 viewBox="0 0 511.999 511.999" style="enable-background:new 0 0 511.999 511.999;" xml:space="preserve">
<path style="fill:#BF0637;" d="M270.727,339.467h-29.456c-86.625,0-157.101,70.474-157.101,157.101
	c0,8.134,6.594,14.728,14.728,14.728H413.1c8.134,0,14.728-6.595,14.728-14.729C427.828,409.942,357.354,339.467,270.727,339.467z"
	/>
<path style="fill:#E30133;" d="M255.999,339.467h-14.728c-86.625,0-157.101,70.474-157.101,157.101
	c0,8.134,6.594,14.728,14.728,14.728h157.101V339.467z"/>
<path style="fill:#D8A169;" d="M255.999,177.45c-51.434,0-93.279,41.845-93.279,93.279v4.917c0,51.434,41.845,93.279,93.279,93.279
	s93.279-41.845,93.279-93.279v-4.917C349.278,219.295,307.433,177.45,255.999,177.45z"/>
<path style="fill:#E9BD7F;" d="M162.721,270.728v4.917c0,51.434,41.845,93.279,93.279,93.279V177.45
	C204.565,177.45,162.721,219.295,162.721,270.728z"/>
<path style="fill:#FF8800;" d="M324.96,48.271l-35.412-11.159L267.991,6.881c-2.763-3.875-7.231-6.177-11.992-6.177
	s-9.228,2.302-11.992,6.177l-21.556,30.231L187.04,48.271c-4.541,1.432-8.109,4.969-9.581,9.497
	c-1.471,4.526-0.663,9.487,2.169,13.313l22.09,29.843l-0.33,37.128c-0.042,4.76,2.219,9.247,6.071,12.047
	c2.549,1.852,5.586,2.812,8.658,2.812c1.57,0,3.148-0.251,4.675-0.762L256,140.362l35.208,11.786
	c4.515,1.515,9.481,0.749,13.332-2.051c3.852-2.798,6.114-7.286,6.071-12.047l-0.33-37.128l22.09-29.842
	c2.833-3.826,3.64-8.786,2.169-13.314C333.07,53.238,329.501,49.701,324.96,48.271z"/>
<path style="fill:#FFA500;" d="M244.007,6.881l-21.556,30.231L187.04,48.271c-4.541,1.432-8.109,4.969-9.581,9.497
	c-1.471,4.526-0.663,9.487,2.169,13.313l22.09,29.843l-0.33,37.128c-0.042,4.76,2.219,9.247,6.071,12.047
	c2.549,1.852,5.586,2.812,8.658,2.812c1.57,0,3.148-0.251,4.675-0.762L256,140.362V0.704C251.239,0.704,246.771,3.004,244.007,6.881
	z"/>
<path style="fill:#FF8800;" d="M511.278,101.958c-1.471-4.527-5.04-8.065-9.581-9.496l-35.411-11.158l-21.556-30.231
	c-2.763-3.875-7.231-6.177-11.992-6.177c-4.761,0-9.228,2.302-11.992,6.177l-21.556,30.231l-35.411,11.158
	c-4.541,1.431-8.11,4.968-9.581,9.496c-1.472,4.527-0.664,9.488,2.169,13.314l22.09,29.843l-0.33,37.128
	c-0.043,4.761,2.219,9.248,6.07,12.047c3.853,2.8,8.818,3.56,13.333,2.052l35.208-11.786l35.208,11.786
	c1.527,0.512,3.105,0.761,4.675,0.761c3.071,0,6.109-0.961,8.658-2.813c3.851-2.798,6.113-7.286,6.07-12.047l-0.33-37.128
	l22.09-29.843C511.942,111.446,512.75,106.485,511.278,101.958z"/>
<path style="fill:#FFC300;" d="M148.221,92.462L112.81,81.304L91.252,51.073c-2.764-3.875-7.231-6.177-11.992-6.177
	s-9.228,2.302-11.992,6.177L45.713,81.304L10.301,92.462c-4.541,1.431-8.109,4.968-9.58,9.496
	c-1.472,4.527-0.663,9.488,2.169,13.314l22.09,29.843l-0.33,37.128c-0.042,4.76,2.219,9.247,6.071,12.046
	c3.852,2.8,8.819,3.561,13.333,2.052l35.208-11.786l35.208,11.786c1.527,0.512,3.105,0.761,4.675,0.761
	c3.071,0,6.109-0.961,8.658-2.813c3.851-2.798,6.113-7.286,6.071-12.046l-0.33-37.128l22.09-29.843
	c2.832-3.825,3.641-8.786,2.169-13.314C156.33,97.43,152.761,93.893,148.221,92.462z"/>
<g>
</g>
<g>
</g>
<g>
</g>
<g>
</g>
<g>
</g>
<g>
</g>
<g>
</g>
<g>
</g>
<g>
</g>
<g>
</g>
<g>
</g>
<g>
</g>
<g>
</g>
<g>
</g>
<g>
</g>
</svg>
